<svg width="71" height="71" viewBox="0 0 71 71" fill="none" xmlns="http://www.w3.org/2000/svg">
<g clip-path="url(#clip0_1:3126)">
<path d="M60.0487 70.9999H11.1996C7.3627 70.9994 3.7994 69.0128 1.78146 65.7485C-0.235938 62.4848 -0.41978 58.4089 1.29536 54.9764L25.7177 6.12519C27.5924 2.37157 31.4282 0 35.6241 0C39.8201 0 43.6559 2.37157 45.5305 6.12519L69.9529 54.9764C71.668 58.4089 71.4842 62.4848 69.4668 65.7485C67.4494 69.0128 63.8856 70.9994 60.0487 70.9999V70.9999Z" fill="#FF0000"/>
<path d="M35.6244 17.7461C36.8475 17.7461 37.8392 18.7378 37.8392 19.9609V46.538C37.8392 47.7611 36.8475 48.7527 35.6244 48.7527C34.4013 48.7527 33.4097 47.7611 33.4097 46.538V19.9609C33.4097 18.7378 34.4013 17.7461 35.6244 17.7461Z" fill="white"/>
<path d="M33.4097 53.1826H37.8392V57.6121H33.4097V53.1826Z" fill="white"/>
</g>
<defs>
<clipPath id="clip0_1:3126">
<rect width="71" height="71" fill="white"/>
</clipPath>
</defs>
</svg>
