<svg width="95" height="88" viewBox="0 0 95 88" fill="none" xmlns="http://www.w3.org/2000/svg">
<g clip-path="url(#clip0_1:7805)">
<path d="M5.8291 87.9999C5.05859 88.0151 4.29324 87.8703 3.58091 87.5744C2.86858 87.2784 2.22457 86.8379 1.68916 86.2802C0.606503 85.1577 0.000976563 83.655 0.000976562 82.0909C0.000976563 80.5267 0.606503 79.0241 1.68916 77.9015C2.22445 77.3437 2.86843 76.903 3.58079 76.6071C4.29315 76.3112 5.05856 76.1664 5.8291 76.1818C6.88896 76.1704 7.9305 76.4601 8.83407 77.0176C9.71927 77.558 10.4414 78.331 10.9228 79.2533L8.76912 80.3711C8.4788 79.8492 8.0566 79.4138 7.54525 79.1088C7.02461 78.7849 6.42411 78.6145 5.81201 78.617C5.36523 78.6092 4.92174 78.6952 4.50975 78.8693C4.09777 79.0433 3.7263 79.3018 3.41898 79.6282C2.7912 80.2898 2.44093 81.1693 2.44093 82.084C2.44093 82.9987 2.7912 83.8782 3.41898 84.5398C3.7263 84.8662 4.09777 85.1246 4.50975 85.2987C4.92174 85.4728 5.36523 85.5587 5.81201 85.551C6.43123 85.5574 7.03989 85.3894 7.56918 85.066C8.08781 84.7528 8.50929 84.3001 8.78621 83.759L10.957 84.8769C10.4759 85.8109 9.75003 86.5947 8.858 87.1435C7.95039 87.7142 6.89931 88.0114 5.8291 87.9999Z" fill="#002444"/>
<path d="M11.2168 87.8348L15.8217 76.333H18.3549L23.0076 87.8348H20.3616L19.6266 85.9465H14.5807L13.8628 87.8348H11.2168ZM15.3499 83.7452H18.8608L17.1139 79.1087H17.0934L15.3499 83.7452Z" fill="#002444"/>
<path d="M33.2288 87.8348H30.5999L28.641 83.8106H26.5009V87.8348H24.1318V76.3331H29.0957C30.1016 76.3101 31.0788 76.6715 31.8306 77.3443C32.2092 77.6871 32.5074 78.1102 32.7037 78.5831C32.9 79.0559 32.9894 79.5668 32.9656 80.0787C32.9888 80.8091 32.7896 81.5291 32.3946 82.1424C32.0206 82.7127 31.4946 83.1656 30.8768 83.4494L33.2288 87.8348ZM26.5009 78.4552V81.74H28.853C29.3064 81.7566 29.7483 81.5936 30.0837 81.286C30.2403 81.1352 30.3634 80.9527 30.4447 80.7505C30.526 80.5483 30.5638 80.331 30.5554 80.1131C30.564 79.891 30.5265 79.6696 30.4453 79.4629C30.364 79.2562 30.2409 79.0688 30.0837 78.9127C29.9173 78.7574 29.722 78.637 29.5089 78.5584C29.2958 78.4799 29.0694 78.4448 28.8427 78.4552H26.5009Z" fill="#002444"/>
<path d="M34.5527 87.8347V76.3329H38.9764C39.9606 76.3216 40.9337 76.5431 41.8173 76.9796C42.6918 77.4256 43.4222 78.1128 43.9232 78.9607C44.4821 79.9024 44.7653 80.9838 44.7402 82.0804C44.7507 82.9227 44.5901 83.7584 44.2684 84.5362C43.9829 85.2306 43.5501 85.854 43.0001 86.3626C42.4655 86.843 41.8448 87.2166 41.1712 87.4632C40.468 87.7211 39.7249 87.8515 38.9764 87.8484L34.5527 87.8347ZM36.9458 85.4683H38.8704C39.7796 85.5076 40.6702 85.2019 41.366 84.6118C42.011 84.0386 42.3346 83.1925 42.3369 82.0735C42.3369 80.9591 42.0122 80.113 41.366 79.5454C40.6705 78.9574 39.7817 78.6519 38.8739 78.689L36.9492 78.7062L36.9458 85.4683Z" fill="#002444"/>
<path d="M48.6438 87.8348V78.4552H44.9346V76.333H54.7494V78.4552H51.0436V87.8348H48.6438Z" fill="#002444"/>
<path d="M60.7901 87.9999C60.0195 88.0151 59.2542 87.8702 58.5419 87.5743C57.8295 87.2784 57.1855 86.8379 56.6501 86.2802C55.5674 85.1576 54.9619 83.655 54.9619 82.0908C54.9619 80.5267 55.5674 79.024 56.6501 77.9015C57.1924 77.3552 57.8364 76.9218 58.5453 76.6261C59.2542 76.3304 60.0141 76.1782 60.7815 76.1782C61.5489 76.1782 62.3088 76.3304 63.0177 76.6261C63.7266 76.9218 64.3706 77.3552 64.9129 77.9015C65.998 79.0228 66.6051 80.5259 66.6051 82.0908C66.6051 83.6558 65.998 85.1589 64.9129 86.2802C64.3807 86.8374 63.7397 87.2778 63.0302 87.5738C62.3207 87.8697 61.558 88.0148 60.7901 87.9999ZM60.7901 85.6335C61.246 85.643 61.6989 85.5561 62.1194 85.3783C62.5398 85.2006 62.9185 84.936 63.231 84.6017C63.8659 83.9176 64.219 83.0165 64.219 82.0805C64.219 81.1445 63.8659 80.2434 63.231 79.5593C62.913 79.2354 62.5342 78.9782 62.1167 78.8027C61.6991 78.6271 61.2511 78.5367 60.7986 78.5367C60.3461 78.5367 59.898 78.6271 59.4805 78.8027C59.063 78.9782 58.6842 79.2354 58.3662 79.5593C57.7313 80.2434 57.3782 81.1445 57.3782 82.0805C57.3782 83.0165 57.7313 83.9176 58.3662 84.6017C58.6735 84.934 59.0461 85.1984 59.4605 85.3778C59.8749 85.5572 60.3219 85.6478 60.773 85.6439L60.7901 85.6335Z" fill="#002444"/>
<path d="M68.1064 87.8348V76.333H70.8003L75.7813 83.9584V76.333H78.1743V87.8348H75.4633L70.4995 80.2265V87.8348H68.1064Z" fill="#002444"/>
<path d="M80.1562 87.8348V76.333H82.5493V87.8348H80.1562Z" fill="#002444"/>
<path d="M89.8721 87.9996C89.1015 88.0156 88.3359 87.8711 87.6234 87.5752C86.911 87.2792 86.267 86.8382 85.7321 86.2798C84.6495 85.1573 84.0439 83.6547 84.0439 82.0905C84.0439 80.5263 84.6495 79.0237 85.7321 77.9012C86.2669 77.3426 86.9108 76.9015 87.6233 76.6055C88.3358 76.3096 89.1014 76.1652 89.8721 76.1814C90.9194 76.1744 91.9485 76.4572 92.8468 76.9989C93.7452 77.5406 94.4782 78.3203 94.9658 79.2529L92.8087 80.3707C92.5184 79.8489 92.0962 79.4134 91.5848 79.1084C91.064 78.7893 90.4647 78.6237 89.855 78.6303C89.4082 78.6226 88.9647 78.7086 88.5527 78.8826C88.1407 79.0567 87.7693 79.3152 87.462 79.6416C86.8326 80.3024 86.4813 81.1822 86.4813 82.0974C86.4813 83.0126 86.8326 83.8924 87.462 84.5532C87.7693 84.8796 88.1407 85.138 88.5527 85.3121C88.9647 85.4862 89.4082 85.5721 89.855 85.5644C90.4732 85.5713 91.0809 85.4032 91.6087 85.0794C92.1282 84.7672 92.5499 84.3143 92.8258 83.7724L95 84.8903C94.5179 85.8235 93.7922 86.6071 92.901 87.1569C91.9919 87.7227 90.9409 88.0151 89.8721 87.9996Z" fill="#002444"/>
<path d="M56.6814 50.8223C52.9248 54.6114 48.1353 57.1939 42.9191 58.2429C37.7029 59.292 32.2947 58.7604 27.379 56.7154C22.4632 54.6704 18.2611 51.204 15.3044 46.7551C12.3478 42.3061 10.7695 37.0745 10.7695 31.7227C10.7695 26.3708 12.3478 21.1392 15.3044 16.6903C18.2611 12.2413 22.4632 8.7749 27.379 6.72993C32.2947 4.68496 37.7029 4.15335 42.9191 5.20238C48.1353 6.25142 52.9248 8.83394 56.6814 12.623L37.985 23.5744V39.8674L56.6814 50.8223Z" fill="#002444"/>
<path d="M84.1219 4.69123V58.7501C84.1218 59.5737 83.9058 60.3827 83.4959 61.0956C83.0859 61.8085 82.4963 62.4 81.7867 62.8105C81.077 63.2211 80.2723 63.4361 79.4537 63.434C78.6351 63.4319 77.8315 63.2126 77.124 62.7984L56.6807 50.822C61.7063 45.7516 64.5286 38.8831 64.5286 31.7224C64.5286 24.5617 61.7063 17.6931 56.6807 12.6228L77.124 0.642919C77.8315 0.228695 78.6351 0.00946816 79.4537 0.00733986C80.2723 0.00521157 81.077 0.220257 81.7867 0.630796C82.4963 1.04134 83.0859 1.63286 83.4959 2.34573C83.9058 3.0586 84.1218 3.86762 84.1219 4.69123Z" fill="#00CEDE"/>
<path d="M37.9841 17.7754H37.9807C30.3246 17.7754 24.1182 24.0198 24.1182 31.7226V31.7261C24.1182 39.4289 30.3246 45.6733 37.9807 45.6733H37.9841C45.6401 45.6733 51.8466 39.4289 51.8466 31.7261V31.7226C51.8466 24.0198 45.6401 17.7754 37.9841 17.7754Z" fill="#00CEDE"/>
</g>
<defs>
<clipPath id="clip0_1:7805">
<rect width="95" height="88" fill="white"/>
</clipPath>
</defs>
</svg>
