<svg width="42" height="42" viewBox="0 0 42 42" fill="none" xmlns="http://www.w3.org/2000/svg">
<path d="M13.5754 3.07538C18.3293 1.10625 23.6707 1.10625 28.4246 3.07538C33.1785 5.04451 36.9555 8.82148 38.9246 13.5754C40.8938 18.3293 40.8938 23.6707 38.9246 28.4246C36.9555 33.1785 33.1785 36.9555 28.4246 38.9246C23.6707 40.8938 18.3293 40.8938 13.5754 38.9246C8.82148 36.9555 5.04451 33.1785 3.07538 28.4246C1.10625 23.6707 1.10625 18.3293 3.07538 13.5754C5.04451 8.82148 8.82148 5.04451 13.5754 3.07538Z" fill="#FF0000"/>
<path d="M26 16L16 26M26 26L16 16" stroke="white" stroke-width="3" stroke-linecap="round"/>
</svg>
