<svg width="42" height="42" viewBox="0 0 42 42" fill="none" xmlns="http://www.w3.org/2000/svg">
<path d="M13.5754 3.07538C18.3293 1.10625 23.6707 1.10625 28.4246 3.07538C33.1785 5.04451 36.9555 8.82148 38.9246 13.5754C40.8938 18.3293 40.8938 23.6707 38.9246 28.4246C36.9555 33.1785 33.1785 36.9555 28.4246 38.9246C23.6707 40.8938 18.3293 40.8938 13.5754 38.9246C8.82148 36.9555 5.04451 33.1785 3.07538 28.4246C1.10625 23.6707 1.10625 18.3293 3.07538 13.5754C5.04451 8.82148 8.82148 5.04451 13.5754 3.07538Z" fill="#BFBFBF"/>
<path fill-rule="evenodd" clip-rule="evenodd" d="M25.9897 15.9091C26.2248 15.676 26.5422 15.5449 26.8732 15.544C27.2043 15.543 27.5224 15.6725 27.7588 15.9042C27.9952 16.136 28.1309 16.4515 28.1365 16.7825C28.1421 17.1135 28.0173 17.4334 27.7889 17.6731L21.0824 26.0563C20.9671 26.1804 20.828 26.2801 20.6733 26.3492C20.5187 26.4184 20.3517 26.4556 20.1823 26.4588C20.0129 26.4619 19.8447 26.4309 19.6876 26.3675C19.5305 26.3041 19.3878 26.2097 19.268 26.0899L14.8244 21.6446C14.7006 21.5293 14.6013 21.3902 14.5324 21.2356C14.4636 21.081 14.4265 20.9142 14.4235 20.745C14.4206 20.5758 14.4517 20.4078 14.515 20.2509C14.5784 20.094 14.6727 19.9515 14.7924 19.8318C14.912 19.7122 15.0546 19.6179 15.2114 19.5545C15.3683 19.4911 15.5364 19.46 15.7056 19.463C15.8747 19.466 16.0416 19.503 16.1962 19.5719C16.3507 19.6407 16.4898 19.74 16.6052 19.8638L20.1231 23.3801L25.9577 15.9461C25.9681 15.933 25.9794 15.9207 25.9913 15.9091H25.9897Z" fill="white"/>
</svg>
