<svg width="42" height="42" viewBox="0 0 42 42" fill="none" xmlns="http://www.w3.org/2000/svg">
<path d="M13.5754 3.07538C18.3293 1.10625 23.6707 1.10625 28.4246 3.07538C33.1785 5.04451 36.9555 8.82148 38.9246 13.5754C40.8938 18.3293 40.8938 23.6707 38.9246 28.4246C36.9555 33.1785 33.1785 36.9555 28.4246 38.9246C23.6707 40.8938 18.3293 40.8938 13.5754 38.9246C8.82148 36.9555 5.04451 33.1785 3.07538 28.4246C1.10625 23.6707 1.10625 18.3293 3.07538 13.5754C5.04451 8.82148 8.82148 5.04451 13.5754 3.07538Z" fill="#2BC155"/>
<path fill-rule="evenodd" clip-rule="evenodd" d="M25.9892 15.9091C26.2243 15.676 26.5417 15.5449 26.8727 15.544C27.2038 15.543 27.5219 15.6725 27.7583 15.9042C27.9947 16.136 28.1304 16.4515 28.136 16.7825C28.1417 17.1135 28.0168 17.4334 27.7884 17.6731L21.0819 26.0563C20.9666 26.1804 20.8275 26.2801 20.6729 26.3492C20.5182 26.4184 20.3512 26.4556 20.1818 26.4588C20.0124 26.4619 19.8442 26.4309 19.6871 26.3675C19.53 26.3041 19.3873 26.2097 19.2675 26.0899L14.8239 21.6446C14.7001 21.5293 14.6008 21.3902 14.5319 21.2356C14.4631 21.081 14.426 20.9142 14.423 20.745C14.4201 20.5758 14.4512 20.4078 14.5146 20.2509C14.5779 20.094 14.6722 19.9515 14.7919 19.8318C14.9115 19.7122 15.0541 19.6179 15.211 19.5545C15.3678 19.4911 15.5359 19.46 15.7051 19.463C15.8743 19.466 16.0411 19.503 16.1957 19.5719C16.3502 19.6407 16.4893 19.74 16.6047 19.8638L20.1226 23.3801L25.9572 15.9461C25.9677 15.933 25.9789 15.9207 25.9908 15.9091H25.9892Z" fill="white"/>
</svg>
