<svg width="126" height="39" viewBox="0 0 126 39" fill="none" xmlns="http://www.w3.org/2000/svg">
<path d="M28.2568 30.6085C25.9864 32.8906 23.0916 34.4459 19.939 35.0778C16.7865 35.7096 13.5178 35.3894 10.5468 34.1578C7.57581 32.9261 5.03609 30.8384 3.24912 28.1589C1.46216 25.4794 0.508301 22.3286 0.508301 19.1053C0.508301 15.882 1.46216 12.7312 3.24912 10.0517C5.03609 7.37221 7.57581 5.2845 10.5468 4.05288C13.5178 2.82125 16.7865 2.50107 19.939 3.13288C23.0916 3.76468 25.9864 5.32006 28.2568 7.60213L16.9569 14.1979V24.0107L28.2568 30.6085Z" fill="#002444"/>
<path d="M44.8419 2.82538V35.3836C44.8419 35.8796 44.7114 36.3668 44.4636 36.7962C44.2158 37.2255 43.8595 37.5818 43.4306 37.829C43.0017 38.0763 42.5153 38.2058 42.0206 38.2045C41.5258 38.2033 41.0401 38.0712 40.6125 37.8217L28.2568 30.6087C31.2943 27.5549 33 23.4182 33 19.1055C33 14.7928 31.2943 10.6561 28.2568 7.60232L40.6125 0.387196C41.0401 0.13772 41.5258 0.00568577 42.0206 0.00440395C42.5153 0.00312214 43.0017 0.132638 43.4306 0.379895C43.8595 0.627151 44.2158 0.983409 44.4636 1.41275C44.7114 1.84209 44.8419 2.32934 44.8419 2.82538Z" fill="#00CEDE"/>
<path d="M16.957 10.7056H16.955C12.3277 10.7056 8.57666 14.4664 8.57666 19.1056V19.1077C8.57666 23.7469 12.3277 27.5077 16.955 27.5077H16.957C21.5842 27.5077 25.3353 23.7469 25.3353 19.1077V19.1056C25.3353 14.4664 21.5842 10.7056 16.957 10.7056Z" fill="#00CEDE"/>
<path d="M59.3873 19.0071C58.8201 19.0174 58.2568 18.9189 57.7324 18.7178C57.208 18.5167 56.734 18.2172 56.3399 17.8381C55.5429 17.0751 55.0972 16.0537 55.0972 14.9905C55.0972 13.9273 55.5429 12.9059 56.3399 12.1429C56.7339 11.7637 57.2079 11.4641 57.7323 11.263C58.2567 11.0618 58.8201 10.9634 59.3873 10.9739C60.1675 10.9662 60.9342 11.1631 61.5993 11.542C62.2509 11.9094 62.7825 12.4348 63.1369 13.0617L61.5515 13.8215C61.3378 13.4668 61.027 13.1708 60.6506 12.9635C60.2673 12.7434 59.8253 12.6275 59.3747 12.6292C59.0459 12.6239 58.7194 12.6823 58.4161 12.8007C58.1129 12.919 57.8394 13.0947 57.6132 13.3165C57.1511 13.7662 56.8932 14.3641 56.8932 14.9858C56.8932 15.6076 57.1511 16.2054 57.6132 16.6551C57.8394 16.877 58.1129 17.0526 58.4161 17.171C58.7194 17.2893 59.0459 17.3477 59.3747 17.3425C59.8305 17.3468 60.2786 17.2326 60.6682 17.0128C61.05 16.7999 61.3602 16.4922 61.5641 16.1244L63.162 16.8842C62.8079 17.5191 62.2736 18.0519 61.6169 18.4249C60.9488 18.8128 60.1751 19.0149 59.3873 19.0071Z" fill="#002444"/>
<path d="M63.3535 18.8948L66.7432 11.0767H68.6079L72.0329 18.8948H70.0851L69.5441 17.6112H65.8297L65.3013 18.8948H63.3535ZM66.3959 16.1149H68.9804L67.6944 12.9634H67.6794L66.3959 16.1149Z" fill="#002444"/>
<path d="M79.5567 18.895H77.6215L76.1796 16.1596H74.6043V18.895H72.8604V11.0769H76.5143C77.2548 11.0613 77.9741 11.3069 78.5275 11.7642C78.8062 11.9972 79.0257 12.2848 79.1702 12.6063C79.3147 12.9277 79.3805 13.2749 79.3629 13.6229C79.3801 14.1194 79.2334 14.6088 78.9427 15.0257C78.6673 15.4133 78.2801 15.7212 77.8254 15.9141L79.5567 18.895ZM74.6043 12.5194V14.7521H76.3356C76.6694 14.7634 76.9947 14.6526 77.2416 14.4435C77.3569 14.341 77.4475 14.217 77.5073 14.0795C77.5672 13.9421 77.595 13.7944 77.5888 13.6463C77.5951 13.4953 77.5675 13.3448 77.5077 13.2043C77.4479 13.0638 77.3573 12.9365 77.2416 12.8303C77.1191 12.7248 76.9753 12.6429 76.8185 12.5895C76.6616 12.5361 76.4949 12.5123 76.3281 12.5194H74.6043Z" fill="#002444"/>
<path d="M80.5303 18.8946V11.0765H83.7866C84.5111 11.0688 85.2274 11.2193 85.8778 11.516C86.5215 11.8192 87.0592 12.2863 87.4279 12.8626C87.8394 13.5028 88.0479 14.2378 88.0294 14.9832C88.0371 15.5558 87.9189 16.1238 87.6821 16.6525C87.4719 17.1245 87.1533 17.5482 86.7485 17.8939C86.355 18.2205 85.898 18.4744 85.4022 18.6421C84.8845 18.8174 84.3376 18.906 83.7866 18.9039L80.5303 18.8946ZM82.2918 17.286H83.7086C84.3778 17.3127 85.0334 17.105 85.5456 16.7039C86.0204 16.3142 86.2586 15.7391 86.2603 14.9785C86.2603 14.221 86.0212 13.6459 85.5456 13.2601C85.0336 12.8604 84.3793 12.6528 83.7111 12.6779L82.2943 12.6896L82.2918 17.286Z" fill="#002444"/>
<path d="M90.9037 18.8948V12.5192H88.1733V11.0767H95.3982V12.5192H92.6703V18.8948H90.9037Z" fill="#002444"/>
<path d="M99.8448 19.0068C99.2777 19.0171 98.7143 18.9186 98.1899 18.7175C97.6656 18.5164 97.1915 18.2169 96.7974 17.8378C96.0004 17.0748 95.5547 16.0534 95.5547 14.9902C95.5547 13.927 96.0004 12.9056 96.7974 12.1426C97.1966 11.7712 97.6706 11.4766 98.1925 11.2756C98.7143 11.0746 99.2737 10.9712 99.8386 10.9712C100.403 10.9712 100.963 11.0746 101.485 11.2756C102.006 11.4766 102.481 11.7712 102.88 12.1426C103.678 12.9047 104.125 13.9264 104.125 14.9902C104.125 16.0539 103.678 17.0756 102.88 17.8378C102.488 18.2166 102.016 18.5159 101.494 18.7171C100.972 18.9183 100.41 19.0169 99.8448 19.0068ZM99.8448 17.3983C100.18 17.4047 100.514 17.3456 100.823 17.2248C101.133 17.104 101.412 16.9241 101.642 16.6969C102.109 16.2319 102.369 15.6194 102.369 14.9832C102.369 14.347 102.109 13.7345 101.642 13.2695C101.408 13.0493 101.129 12.8744 100.821 12.7551C100.514 12.6358 100.184 12.5743 99.8511 12.5743C99.518 12.5743 99.1882 12.6358 98.8809 12.7551C98.5735 12.8744 98.2947 13.0493 98.0607 13.2695C97.5933 13.7345 97.3333 14.347 97.3333 14.9832C97.3333 15.6194 97.5933 16.2319 98.0607 16.6969C98.2868 16.9228 98.5611 17.1025 98.8662 17.2244C99.1712 17.3464 99.5002 17.408 99.8323 17.4053L99.8448 17.3983Z" fill="#002444"/>
<path d="M105.23 18.8948V11.0767H107.213L110.88 16.2599V11.0767H112.642V18.8948H110.646L106.992 13.7232V18.8948H105.23Z" fill="#002444"/>
<path d="M114.101 18.8948V11.0767H115.863V18.8948H114.101Z" fill="#002444"/>
<path d="M121.253 19.0072C120.685 19.0181 120.122 18.9199 119.597 18.7187C119.073 18.5175 118.599 18.2177 118.205 17.8382C117.408 17.0752 116.962 16.0538 116.962 14.9906C116.962 13.9274 117.408 12.906 118.205 12.143C118.599 11.7633 119.073 11.4635 119.597 11.2623C120.122 11.0611 120.685 10.9629 121.253 10.974C122.023 10.9692 122.781 11.1614 123.442 11.5296C124.104 11.8978 124.643 12.4279 125.002 13.0618L123.414 13.8216C123.201 13.4669 122.89 13.1709 122.513 12.9636C122.13 12.7467 121.689 12.6341 121.24 12.6386C120.911 12.6334 120.585 12.6918 120.281 12.8101C119.978 12.9284 119.705 13.1041 119.478 13.326C119.015 13.7751 118.757 14.3732 118.757 14.9953C118.757 15.6173 119.015 16.2154 119.478 16.6646C119.705 16.8864 119.978 17.0621 120.281 17.1804C120.585 17.2987 120.911 17.3572 121.24 17.3519C121.695 17.3566 122.142 17.2424 122.531 17.0223C122.913 16.81 123.224 16.5021 123.427 16.1338L125.027 16.8937C124.672 17.5281 124.138 18.0607 123.482 18.4344C122.813 18.819 122.039 19.0177 121.253 19.0072Z" fill="#002444"/>
</svg>
